<?xml version="1.0" encoding="utf-8"?>
<!-- Generator: Adobe Illustrator 22.1.0, SVG Export Plug-In . SVG Version: 6.00 Build 0)  -->
<svg version="1.1" id="Capa_1" xmlns="http://www.w3.org/2000/svg" xmlns:xlink="http://www.w3.org/1999/xlink" x="0px" y="0px"
	 viewBox="0 0 52 52" style="enable-background:new 0 0 52 52;" xml:space="preserve">
<path d="M26,6l6.6,12l0.5,0.8L34,19l13.5,2.6l-9.4,10l-0.7,0.7l0.1,0.9l1.7,13.6L26.9,41L26,40.6L25.1,41l-12.4,5.8l1.7-13.6
	l0.1-0.9l-0.7-0.7l-9.4-10L18,19l0.9-0.2l0.5-0.8L26,6 M26,1.7L17.6,17L0.5,20.3L12.4,33l-2.2,17.3L26,42.9l15.8,7.4L39.6,33
	l11.9-12.7L34.4,17L26,1.7L26,1.7z"/>
</svg>
